<svg xmlns="http://www.w3.org/2000/svg" fill="none" viewBox="0 0 160 57">
  <g fill="#EEE" filter="url(#filter0_d)">
    <path d="M118.908 30.8406c-.175-.1836-.171-.472.01-.6506l.314-.3109c.181-.1786.473-.1827.659-.0091.194.1805.198.4832.01.6691l-.315.3109c-.188.1859-.495.1816-.678-.0094zM117.364 36.1247c-.182.1794-.185.4691-.008.6525.184.1893.489.1927.676.0075l5.987-5.9135c.188-.1852.184-.4864-.007-.6674-.186-.1752-.479-.172-.661.0074l-5.987 5.9135zM111.7 30.7194c.191-.1888.503-.181.684.017.169.1844.162.4672-.016.643l-2.171 2.1443c-.185.1822-.484.1822-.669 0-.184-.1823-.184-.4778 0-.66l2.172-2.1443zM112.342 32.2844c.188-.1856.494-.1816.677.0089.177.1835.173.4723-.008.6511l-3.613 3.5683c-.177.1745-.461.183-.648.0194-.203-.1783-.213-.4893-.02-.6794l3.612-3.5683zM113.513 33.9921c-.185-.1839-.485-.1847-.67-.0017l-3.673 3.627c-.187.1852-.184.4864.008.6674.186.1753.479.172.66-.0074l3.673-3.627c.184-.1816.184-.4757.002-.6583zM113.325 35.714c.181-.1791.474-.1827.66-.008.192.1809.196.4826.008.668l-3.385 3.3431c-.188.1859-.494.1816-.677-.0094-.176-.1836-.172-.472.009-.6506l3.385-3.3431zM114.618 37.2792c-.186-.1739-.478-.1701-.659.0088l-3.523 3.4794c-.183.1802-.185.4715-.006.6546.184.1874.487.1898.674.0055l3.523-3.4795c.188-.1858.184-.4881-.009-.6688zM114.602 38.8523c.185-.1823.484-.1823.669-.0001.184.1822.184.4778 0 .6601l-3.525 3.4809c-.193.1905-.508.1806-.688-.0215-.165-.1849-.156-.4644.02-.6385l3.524-3.4809zM121.938 30.0272c-.187-.1636-.471-.1551-.648.0194l-2.852 2.8171c-.184.1822-.184.4777 0 .66.185.1822.484.1822.668 0l2.853-2.8171c.192-.1901.183-.5011-.021-.6794zM124.15 31.6222c.186-.1836.488-.182.672.0037.181.1828.179.4755-.004.6563l-7.605 7.5115c-.184.1822-.484.1822-.668 0-.185-.1823-.185-.4778 0-.66l7.605-7.5115zM123.901 35.3876c.183-.1798.185-.4706.007-.6538-.184-.188-.488-.1908-.675-.0062l-.674.6661c-.185.1822-.185.4777 0 .66.184.1822.484.1822.668 0l.674-.6661zM114.997 48.582c-.18.1778-.47.1828-.656.0113-.196-.1802-.201-.4846-.012-.6713l5.837-5.7649c.185-.1831.486-.1822.67.0021.183.1826.182.4764-.002.6579l-5.837 5.7649zM112.948 47.086c-.179.1771-.185.4625-.013.6465.182.1948.492.2009.681.0135l9.054-8.9423c.185-.1823.185-.4778 0-.66-.184-.1823-.483-.1823-.668 0l-9.054 8.9423zM112.898 46.2559c-.191.188-.501.1812-.683-.015-.171-.1842-.164-.4684.014-.645l9.216-9.1022c.185-.1823.484-.1823.668 0 .185.1822.185.4777 0 .66l-9.215 9.1022zM111.576 44.7022c.184.1819.483.1818.668-.0003l3.855-3.8082c.185-.1823.185-.4778 0-.66-.184-.1823-.483-.1823-.668 0l-3.856 3.8082c-.184.1824-.184.4781.001.6603zM108.684 35.018c-.179.1764-.466.1829-.653.0147-.199-.1794-.206-.4866-.015-.6747l.399-.3943c.184-.1823.483-.1823.668 0 .185.1822.185.4777 0 .66l-.399.3943zM107.61 32.5583c-.186.1838-.184.4824.004.6639.186.1785.482.1768.665-.0039l2.207-2.1802c.183-.1806.185-.4731.004-.6559-.184-.1861-.486-.1879-.672-.0041l-2.208 2.1802zM108.081 30.5537c.184.1822.184.4777 0 .66l-.557.55c-.185.1822-.484.1822-.668 0-.185-.1823-.185-.4777 0-.66l.556-.55c.185-.1823.484-.1823.669 0zM116.634 47.846c-.181.1788-.185.4674-.009.651.183.1907.489.1948.677.009l2.57-2.5383c.177-.1749.185-.456.018-.6406-.18-.2002-.494-.209-.686-.0194l-2.57 2.5383z"/>
  </g>
  <g fill="#EEE" filter="url(#filter1_d)">
    <path d="M7.29303 48.7187c-.37713 0-.68692-.1072-.92937-.3215C6.12122 48.1829 6 47.9552 6 47.7141V19.022c0-.2679.12122-.4956.36366-.6832.24245-.1875.55224-.2813.92937-.2813.37713 0 .68692.0938.92937.2813.26938.1876.40407.4153.40407.6832v19.5701l9.85933-8.7202c.2155-.1607.4176-.2411.6061-.2411.3233 0 .6196.1206.889.3617.2963.2411.4445.5358.4445.8841 0 .2946-.0943.5358-.2829.7233l-5.9398 5.1839 6.9904 10.1668c.1078.1875.1616.375.1616.5626 0 .3214-.1616.6161-.4849.884-.2963.2679-.6061.4019-.9293.4019-.3233 0-.5927-.1474-.8082-.4421l-6.7884-9.9257-3.71743 3.255v6.0278c0 .2411-.13469.4688-.40407.6831-.24245.2143-.55224.3215-.92937.3215z"/>
    <path fill-rule="evenodd" d="M31.8751 49c-1.6971 0-3.2056-.3081-4.5256-.9243-1.293-.6429-2.3167-1.5404-3.0709-2.6923-.7274-1.152-1.091-2.4915-1.091-4.0186v-4.5007c0-1.3395.3502-2.5584 1.0506-3.6568.7004-1.1252 1.6297-2.0227 2.7881-2.6924 1.1852-.6965 2.4783-1.0448 3.8791-1.0448 1.3469 0 2.586.3215 3.7174.9644 1.1584.6162 2.0877 1.4735 2.7881 2.5719.7004 1.0984 1.0506 2.3575 1.0506 3.7774 0 1.0448-.1751 1.7949-.5253 2.2503-.3502.4287-.7947.6966-1.3334.8037-.5119.1072-1.0641.1608-1.6567.1608H25.814v1.4868c0 1.6074.5792 2.8933 1.7376 3.8578 1.1583.9376 2.6264 1.4064 4.4043 1.4064 1.0776 0 1.8992-.1339 2.4649-.4018.5926-.2679 1.064-.5358 1.4142-.8037.3502-.2679.6735-.4019.9698-.4019.3233 0 .5926.1474.8081.4421.2156.2679.3233.5224.3233.7635 0 .3215-.2559.6965-.7677 1.1252-.4849.4018-1.1853.7635-2.1012 1.085-.889.2947-1.953.442-3.1922.442zM25.814 38.0697h8.0815c.8081 0 1.3469-.0804 1.6163-.2411.2694-.1876.404-.5626.404-1.1252 0-.8573-.2155-1.661-.6465-2.4111-.431-.7769-1.0236-1.4065-1.7779-1.8887-.7543-.509-1.6297-.7635-2.6265-.7635-.9428 0-1.7913.2277-2.5456.6831-.7543.4287-1.3604 1.018-1.8183 1.7682-.458.7501-.687 1.5672-.687 2.4512v1.5271z" clip-rule="evenodd"/>
    <path d="M43.6743 48.7187c-.3502 0-.6599-.1072-.9293-.3215-.2425-.2143-.3637-.442-.3637-.6831V30.6756c0-.2679.1212-.4956.3637-.6831.2694-.1875.5791-.2813.9293-.2813.3772 0 .687.0938.9294.2813.2694.1875.4041.4152.4041.6831v17.0385c0 .2411-.1347.4688-.4041.6831-.2424.2143-.5522.3215-.9294.3215zM43.6743 24.0853c-.4849 0-.9024-.1608-1.2526-.4822-.3502-.3483-.5253-.7502-.5253-1.2056s.1751-.8439.5253-1.1653c.3502-.3215.7677-.4823 1.2526-.4823.4849 0 .9025.1608 1.2527.4823.3502.3214.5253.7099.5253 1.1653s-.1751.8573-.5253 1.2056c-.3502.3214-.7678.4822-1.2527.4822zM51.3296 48.7187c-.3771 0-.6869-.1072-.9294-.3215-.2424-.2143-.3636-.442-.3636-.6831V30.6756c0-.2679.1212-.4956.3636-.6831.2425-.1875.5523-.2813.9294-.2813.3502 0 .6465.0938.889.2813.2424.1875.3636.4152.3636.6831v1.8485c.431-.7769 1.1045-1.4734 2.0204-2.0896.9159-.6429 2.0473-.9644 3.3942-.9644 1.293 0 2.4783.3483 3.5558 1.0448 1.1045.6697 1.98 1.5806 2.6265 2.7326.6465 1.1252.9698 2.3709.9698 3.7372v10.7294c0 .3215-.1347.576-.4041.7635-.2694.1607-.5792.2411-.9294.2411-.2963 0-.5926-.0804-.8889-.2411-.2694-.1875-.4041-.442-.4041-.7635V36.9847c0-.8573-.229-1.6744-.6869-2.4513-.431-.7769-1.0371-1.4065-1.8183-1.8887-.7543-.509-1.5894-.7635-2.5053-.7635-.8081 0-1.5893.2009-2.3436.6028-.7273.4018-1.3334.9912-1.8183 1.7681-.458.7501-.687 1.661-.687 2.7326v10.7294c0 .2411-.1346.4688-.404.6831-.2425.2143-.5523.3215-.9294.3215z"/>
    <path fill-rule="evenodd" d="M76.4686 49c-1.2931 0-2.4783-.3483-3.5559-1.0448-1.0775-.7233-1.953-1.661-2.6264-2.813-.6466-1.1787-.9698-2.4379-.9698-3.7774v-4.3801c0-1.3663.3232-2.612.9698-3.7372.6465-1.152 1.522-2.0629 2.6264-2.7326 1.1045-.6965 2.3167-1.0448 3.6367-1.0448 1.3199 0 2.4244.3215 3.3134.9644.9159.6162 1.5893 1.3127 2.0203 2.0896V19.022c0-.2679.1213-.4956.3637-.6832.2694-.1875.5926-.2813.9698-.2813.3771 0 .6869.0938.9293.2813.2425.1876.3637.4153.3637.6832v28.6921c0 .2411-.1212.4688-.3637.6831-.2424.2143-.5522.3215-.9293.3215-.3233 0-.6061-.1072-.8486-.3215-.2424-.2143-.3636-.442-.3636-.6831v-1.8083c-.458.8304-1.1853 1.5538-2.182 2.1699-.9967.6162-2.1147.9243-3.3538.9243zm.4444-2.4111c.9429 0 1.7914-.2411 2.5457-.7233.7543-.509 1.3469-1.0716 1.7779-1.6878.431-.643.6465-1.1654.6465-1.5672v-5.6259c0-1.0716-.2424-1.9825-.7273-2.7326-.4849-.7769-1.1045-1.3663-1.8587-1.7681-.7543-.4019-1.5355-.6028-2.3436-.6028-.9159 0-1.7645.2545-2.5457.7635-.7543.4822-1.3604 1.1118-1.8183 1.8887-.458.7769-.687 1.594-.687 2.4513v4.3801c0 .8841.229 1.728.687 2.5317.4579.8037 1.064 1.4601 1.8183 1.9691.7812.4822 1.6163.7233 2.5052.7233zM97.5763 49c-1.6971 0-3.2057-.3081-4.5256-.9243-1.2931-.6429-2.3167-1.5404-3.071-2.6923-.7273-1.152-1.091-2.4915-1.091-4.0186v-4.5007c0-1.3395.3502-2.5584 1.0506-3.6568.7004-1.1252 1.6298-2.0227 2.7881-2.6924 1.1853-.6965 2.4783-1.0448 3.8791-1.0448 1.3469 0 2.5861.3215 3.7175.9644 1.158.6162 2.088 1.4735 2.788 2.5719.7 1.0984 1.051 2.3575 1.051 3.7774 0 1.0448-.175 1.7949-.526 2.2503-.35.4287-.794.6966-1.333.8037-.512.1072-1.064.1608-1.657.1608h-9.1318v1.4868c0 1.6074.5792 2.8933 1.7375 3.8578 1.1583.9376 2.6265 1.4064 4.4044 1.4064 1.0775 0 1.8991-.1339 2.4649-.4018.593-.2679 1.064-.5358 1.414-.8037.35-.2679.674-.4019.97-.4019.323 0 .593.1474.808.4421.216.2679.323.5224.323.7635 0 .3215-.256.6965-.767 1.1252-.485.4018-1.186.7635-2.102 1.085-.8885.2947-1.9526.442-3.1917.442zm-6.0611-10.9303h8.0814c.8084 0 1.3474-.0804 1.6164-.2411.269-.1876.404-.5626.404-1.1252 0-.8573-.216-1.661-.647-2.4111-.431-.7769-1.0232-1.4065-1.7774-1.8887-.7543-.509-1.6298-.7635-2.6265-.7635-.9428 0-1.7914.2277-2.5457.6831-.7542.4287-1.3603 1.018-1.8183 1.7682-.4579.7501-.6869 1.5672-.6869 2.4512v1.5271z" clip-rule="evenodd"/>
  </g>
  <g filter="url(#filter2_d)">
    <path fill="#EEE" fill-rule="evenodd" d="M141.478 32.8319c9.125 0 16.522-7.3497 16.522-16.416C158 7.34967 150.603 0 141.478 0c-9.124 0-16.521 7.34967-16.521 16.4159 0 9.0663 7.397 16.416 16.521 16.416zm0-2.273c7.862 0 14.234-6.332 14.234-14.143 0-7.8109-6.372-14.14292-14.234-14.14292-7.861 0-14.234 6.33202-14.234 14.14292 0 7.811 6.373 14.143 14.234 14.143z" clip-rule="evenodd"/>
  </g>
  <defs>
    <filter id="filter0_d" width="26.2393" height="26.9763" x="100.717" y="29.7424" color-interpolation-filters="sRGB" filterUnits="userSpaceOnUse">
      <feFlood flood-opacity="0" result="BackgroundImageFix"/>
      <feColorMatrix in="SourceAlpha" values="0 0 0 0 0 0 0 0 0 0 0 0 0 0 0 0 0 0 127 0"/>
      <feOffset dx="-2" dy="4"/>
      <feGaussianBlur stdDeviation="2"/>
      <feColorMatrix values="0 0 0 0 0 0 0 0 0 0 0 0 0 0 0 0 0 0 0.32 0"/>
      <feBlend in2="BackgroundImageFix" result="effect1_dropShadow"/>
      <feBlend in="SourceGraphic" in2="effect1_dropShadow" result="shape"/>
    </filter>
    <filter id="filter1_d" width="106.163" height="38.9425" x="0" y="18.0575" color-interpolation-filters="sRGB" filterUnits="userSpaceOnUse">
      <feFlood flood-opacity="0" result="BackgroundImageFix"/>
      <feColorMatrix in="SourceAlpha" values="0 0 0 0 0 0 0 0 0 0 0 0 0 0 0 0 0 0 127 0"/>
      <feOffset dx="-2" dy="4"/>
      <feGaussianBlur stdDeviation="2"/>
      <feColorMatrix values="0 0 0 0 0 0 0 0 0 0 0 0 0 0 0 0 0 0 0.32 0"/>
      <feBlend in2="BackgroundImageFix" result="effect1_dropShadow"/>
      <feBlend in="SourceGraphic" in2="effect1_dropShadow" result="shape"/>
    </filter>
    <filter id="filter2_d" width="41.0435" height="40.8319" x="118.957" y="0" color-interpolation-filters="sRGB" filterUnits="userSpaceOnUse">
      <feFlood flood-opacity="0" result="BackgroundImageFix"/>
      <feColorMatrix in="SourceAlpha" values="0 0 0 0 0 0 0 0 0 0 0 0 0 0 0 0 0 0 127 0"/>
      <feOffset dx="-2" dy="4"/>
      <feGaussianBlur stdDeviation="2"/>
      <feColorMatrix values="0 0 0 0 0 0 0 0 0 0 0 0 0 0 0 0 0 0 0.32 0"/>
      <feBlend in2="BackgroundImageFix" result="effect1_dropShadow"/>
      <feBlend in="SourceGraphic" in2="effect1_dropShadow" result="shape"/>
    </filter>
  </defs>
</svg>
